<?xml version="1.0" encoding="utf-8"?>
<!-- Generator: Adobe Illustrator 16.0.4, SVG Export Plug-In . SVG Version: 6.00 Build 0)  -->
<!DOCTYPE svg PUBLIC "-//W3C//DTD SVG 1.1//EN" "http://www.w3.org/Graphics/SVG/1.1/DTD/svg11.dtd">
<svg version="1.1" id="Layer_1" xmlns="http://www.w3.org/2000/svg" xmlns:xlink="http://www.w3.org/1999/xlink" x="0px" y="0px"
	 width="95px" height="55px" viewBox="0 0 95 55" enable-background="new 0 0 95 55" xml:space="preserve">
<path fill="#555d66" d="M40.404,27.075c0,7.348-5.98,13.329-13.334,13.329c-7.352,0-13.334-5.981-13.334-13.329
	c0-7.353,5.982-13.334,13.334-13.334c2.67,0,5.245,0.784,7.44,2.264l0.713,0.48l0.183-0.84c1.27-5.743,4.207-9.67,5.41-11.094
	l0.448-0.53l-0.6-0.348C36.55,1.272,31.848,0,27.07,0C12.145,0,0,12.146,0,27.075C0,42,12.145,54.145,27.07,54.145
	c14.925,0,27.071-12.145,27.071-27.069c0-7.353,5.979-13.334,13.334-13.334c7.356,0,13.342,5.982,13.342,13.335
	c0,7.348-5.985,13.33-13.342,13.33c-5.322,0-7.526-1.313-9.205-3.29l-0.871-1.027l-0.154,1.335
	c-0.146,1.275-1.889,6.776-5.743,9.932l-0.513,0.42l0.476,0.459c4.679,4.476,8.565,5.912,16.011,5.912
	c14.924,0,27.069-12.146,27.069-27.07C94.544,12.145,82.398,0,67.475,0C52.548,0,40.404,12.146,40.404,27.075z"/>
</svg>
